<svg xmlns="http://www.w3.org/2000/svg" viewBox="0 0 26 50" width="26" height="50" preserveAspectRatio="xMidYMid meet" style="width: 100%; height: 100%; transform: translate3d(0px, 0px, 0px);"><defs><clipPath id="__lottie_element_2"><rect width="26" height="50" x="0" y="0"/></clipPath></defs><g clip-path="url(#__lottie_element_2)"><g style="display: block;" transform="matrix(0.5656854510307312,0.5656854510307312,-0.5656854510307312,0.5656854510307312,213.06842041015625,-183.04090881347656)" opacity="1"><g opacity="1" transform="matrix(1,0,0,1,-0.1379999965429306,352.6549987792969)"><path fill="rgb(0,0,0)" fill-opacity="1" d="M0 0"/><path stroke-linecap="butt" stroke-linejoin="miter" fill-opacity="0" stroke-miterlimit="4" stroke="rgb(255,255,255)" stroke-opacity="1" stroke-width="1" d=" M9.97249984741211,-9.97249984741211 C9.97249984741211,-9.97249984741211 9.97249984741211,9.97249984741211 9.97249984741211,9.97249984741211 C9.97249984741211,9.97249984741211 -9.97249984741211,9.97249984741211 -9.97249984741211,9.97249984741211 C-9.97249984741211,9.97249984741211 -9.97249984741211,-9.97249984741211 -9.97249984741211,-9.97249984741211 C-9.97249984741211,-9.97249984741211 9.97249984741211,-9.97249984741211 9.97249984741211,-9.97249984741211z"/></g></g><g style="display: none;" transform="matrix(0.5656854510307312,0.5656854510307312,-0.5656854510307312,0.5656854510307312,212.93185424804688,-172.25872802734375)" opacity="2.313623070904214e-10"><g opacity="1" transform="matrix(1,0,0,1,-0.1379999965429306,352.6549987792969)"><path fill="rgb(0,0,0)" fill-opacity="1" d="M0 0"/><path stroke-linecap="butt" stroke-linejoin="miter" fill-opacity="0" stroke-miterlimit="4" stroke="rgb(255,255,255)" stroke-opacity="1" stroke-width="1" d=" M9.97249984741211,-9.97249984741211 C9.97249984741211,-9.97249984741211 9.97249984741211,9.97249984741211 9.97249984741211,9.97249984741211 C9.97249984741211,9.97249984741211 -9.97249984741211,9.97249984741211 -9.97249984741211,9.97249984741211 C-9.97249984741211,9.97249984741211 -9.97249984741211,-9.97249984741211 -9.97249984741211,-9.97249984741211 C-9.97249984741211,-9.97249984741211 9.97249984741211,-9.97249984741211 9.97249984741211,-9.97249984741211z"/></g></g><g style="display: block;" transform="matrix(0.5656854510307312,0.5656854510307312,-0.5656854510307312,0.5656854510307312,213.06985473632812,-183.25872802734375)" opacity="0.2476853557469379"><g opacity="1" transform="matrix(1,0,0,1,-0.1379999965429306,352.6549987792969)"><path fill="rgb(0,0,0)" fill-opacity="1" d="M0 0"/><path stroke-linecap="butt" stroke-linejoin="miter" fill-opacity="0" stroke-miterlimit="4" stroke="rgb(255,255,255)" stroke-opacity="1" stroke-width="1" d=" M9.97249984741211,-9.97249984741211 C9.97249984741211,-9.97249984741211 9.97249984741211,9.97249984741211 9.97249984741211,9.97249984741211 C9.97249984741211,9.97249984741211 -9.97249984741211,9.97249984741211 -9.97249984741211,9.97249984741211 C-9.97249984741211,9.97249984741211 -9.97249984741211,-9.97249984741211 -9.97249984741211,-9.97249984741211 C-9.97249984741211,-9.97249984741211 9.97249984741211,-9.97249984741211 9.97249984741211,-9.97249984741211z"/></g></g></g></svg>